<?xml version="1.0" encoding="UTF-8" standalone="no"?>
<!-- Created with Inkscape (http://www.inkscape.org/) -->

<svg
   xmlns:dc="http://purl.org/dc/elements/1.1/"
   xmlns:cc="http://creativecommons.org/ns#"
   xmlns:rdf="http://www.w3.org/1999/02/22-rdf-syntax-ns#"
   xmlns:svg="http://www.w3.org/2000/svg"
   xmlns="http://www.w3.org/2000/svg"
   xmlns:sodipodi="http://sodipodi.sourceforge.net/DTD/sodipodi-0.dtd"
   xmlns:inkscape="http://www.inkscape.org/namespaces/inkscape"
   width="170"
   height="70"
   viewBox="0 0 44.979166 18.520834"
   version="1.1"
   id="svg8"
   inkscape:export-filename="/home/vjeferson/Desktop/app-store-icon.png"
   inkscape:export-xdpi="3.2971888"
   inkscape:export-ydpi="3.2971888"
   inkscape:version="0.92.5 (2060ec1f9f, 2020-04-08)"
   sodipodi:docname="nosso-cafofo.svg">
  <defs
     id="defs2" />
  <sodipodi:namedview
     id="base"
     pagecolor="#ffffff"
     bordercolor="#666666"
     borderopacity="1.0"
     inkscape:pageopacity="0.0"
     inkscape:pageshadow="2"
     inkscape:zoom="5.6"
     inkscape:cx="-4.7739262"
     inkscape:cy="-5.9807604"
     inkscape:document-units="px"
     inkscape:current-layer="layer1"
     showgrid="false"
     inkscape:window-width="1920"
     inkscape:window-height="1013"
     inkscape:window-x="1920"
     inkscape:window-y="0"
     inkscape:window-maximized="1"
     units="px" />
  <metadata
     id="metadata5">
    <rdf:RDF>
      <cc:Work
         rdf:about="">
        <dc:format>image/svg+xml</dc:format>
        <dc:type
           rdf:resource="http://purl.org/dc/dcmitype/StillImage" />
        <dc:title />
      </cc:Work>
    </rdf:RDF>
  </metadata>
  <g
     inkscape:label="Camada 1"
     inkscape:groupmode="layer"
     id="layer1"
     transform="translate(0,-278.47913)">
    <text
       xml:space="preserve"
       style="font-style:normal;font-weight:normal;font-size:10.58333397px;line-height:1.25;font-family:sans-serif;letter-spacing:0px;word-spacing:0px;fill:#000000;fill-opacity:1;stroke:none;stroke-width:0.26458335"
       x="29.52939"
       y="286.55838"
       id="text4599"><tspan
         sodipodi:role="line"
         id="tspan4597"
         x="29.52939"
         y="295.92215"
         style="stroke-width:0.26458335" /></text>
    <path
       style="fill:#000000;stroke-width:0.09757116"
       d=""
       id="path4786"
       inkscape:connector-curvature="0" />
    <path
       style="fill:#000000;stroke-width:0.09757116"
       d=""
       id="path4784"
       inkscape:connector-curvature="0" />
    <path
       style="fill:#43dbd7;fill-opacity:1;stroke-width:0.05624562"
       d="m 22.420289,285.8162 c -1.804707,-0.007 -3.605608,0.39971 -5.294863,1.22108 l -0.566402,0.27498 v 2.88251 h 6.85e-4 c 0,1.58519 0.01388,2.88187 0.03082,2.88187 0.01613,0 4.133782,0.002 4.429166,-0.0673 v -3.9613 h 2.880636 v 3.9786 c -0.03996,-9.4e-4 0.16644,0.002 0.104787,6.4e-4 0.437811,0.0367 4.157959,0.0484 4.177813,0.0487 0.01985,3.1e-4 0.03629,-1.29592 0.03629,-2.88059 v -2.88122 l -0.480106,-0.23461 c -1.705674,-0.83485 -3.514127,-1.25621 -5.318834,-1.26338 z"
       id="path4816"
       inkscape:connector-curvature="0" />
    <path
       style="fill:#5d2680;fill-opacity:1;stroke-width:0.0496249"
       d="m 14.106687,285.95602 -0.335708,-0.11314 0.0111,1.39175 0.01165,1.49814 -0.167021,0.0955 c -0.324619,0.18703 -0.342895,0.58998 -0.03773,0.84441 0.155718,0.12983 0.157043,0.13279 0.07269,0.28284 -0.04687,0.0834 -0.106014,0.21742 -0.131509,0.29746 -0.04036,0.12659 -0.301703,3.15606 -0.302968,3.5144 l -5.55e-4,0.13261 0.156478,-0.10639 c 0.112403,-0.0765 0.250268,-0.11147 0.48941,-0.1255 0.285382,-0.0168 0.366225,-0.002 0.572645,0.10414 l 0.240266,0.12364 -0.03052,-0.32069 c -0.01706,-0.17634 -0.07898,-0.9525 -0.137057,-1.72479 -0.104231,-1.3862 -0.18016,-1.83479 -0.332932,-1.95145 -0.09805,-0.0749 -0.101053,-0.14311 -0.0056,-0.14311 0.04015,0 0.1333,-0.0659 0.206973,-0.14647 0.225297,-0.24635 0.150229,-0.6571 -0.14649,-0.80321 l -0.133173,-0.0659 v -1.44345 z"
       id="path4863"
       inkscape:connector-curvature="0" />
    <path
       style="fill:#f9f9f9;fill-opacity:1;stroke-width:0.21258187"
       d="M 84.619141,1.7480469 65.544922,11.494141 c -10.491084,5.360315 -19.316491,9.875735 -19.611328,10.035156 -0.512466,0.277417 -0.376383,0.372967 3.095703,2.148437 l 3.630859,1.855469 0.349888,0.173271 0.54548,0.288503 0.290179,0.145648 0.681641,0.361328 c 0.375609,0.198803 2.205247,1.13686 4.064453,2.085938 l 3.380859,1.728515 2.900391,-1.328125 c 6.831681,-3.120831 12.38185,-4.339843 19.748047,-4.339843 7.366737,0 12.914823,1.220209 19.748046,4.341796 l 2.9043,1.326172 8.02148,-4.105468 c 4.41242,-2.257172 8.12652,-4.180159 8.25391,-4.273438 0.12737,-0.09298 -8.57825,-4.673861 -19.34766,-10.179688 z"
       id="path4809"
       transform="matrix(0.26458334,0,0,0.26458334,0,278.47913)"
       inkscape:connector-curvature="0"
       sodipodi:nodetypes="ccccccccccccscccccc" />
  </g>
</svg>
